# xmcd
#
# Track frame offsets:
#	150
#	30075
#	42375
#	51825
#	72000
#	88200
#	100150
#	115025
#	126100
#	139650
#	161700
#	173800
#	191275
#	214600
#	223375
#	238650
#	255600
#
# Disc length: 3557 seconds
#
# Revision: 0
# Processed by: cddbd v1.5.2PL0 Copyright (c) Steve Scherf et al.
# Submitted via: EasyCDDAExtractor 16.0.6.1
#
DISCID=ed0de311
DTITLE=Άνευ ερμηνευτού - Ελληνικά παραδ. όργανα 11 Κλαρίνο
DYEAR=1999
DGENRE=Παραδοσιακή
TTITLE0=Μοιρολόϊ και στρωτό πωγωνίσιο
TTITLE1=Αρβανίτικο
TTITLE2=Ποτάμια
TTITLE3=Ζαγορίσιο
TTITLE4=Μίρκα
TTITLE5=Ολυμπία
TTITLE6=Μπαρμπα Αποστόλη
TTITLE7=Λισσάβω
TTITLE8=Κορ Ελένη
TTITLE9=Κατσάμπα
TTITLE10=Ο Όρλιγκας
TTITLE11=Παπαδιά
TTITLE12=Τζαμάρα
TTITLE13=Χόρα
TTITLE14=Φρασιά
TTITLE15=Ταξίμι Καρτσιγάρ
TTITLE16=Πέργαμος
EXTD=
EXTT0=
EXTT1=
EXTT2=
EXTT3=
EXTT4=
EXTT5=
EXTT6=
EXTT7=
EXTT8=
EXTT9=
EXTT10=
EXTT11=
EXTT12=
EXTT13=
EXTT14=
EXTT15=
EXTT16=
PLAYORDER=
